# xmcd
#
# Track frame offsets: 
#        150
#        33536
#        51871
#        75501
#        102635
#        144368
#        162487
#        188333
#        213667
#        244872
#
# Disc length: 3609 seconds
#
# Revision: 0
# Processed by: cddbd v1.5.2PL0 Copyright (c) Steve Scherf et al.
# Submitted via: ExactAudioCopy v0.99pb4
#
DISCID=870e170a
DTITLE=Woodie Alan - Beijing Blues
DYEAR=2009
DGENRE=Blues
TTITLE0=Beijing Blues
TTITLE1=Mr. Big Shot
TTITLE2=Wode Baobei  ????
TTITLE3=Got Love
TTITLE4=You're Gonna Make Me Lonesome When You Go (Live)
TTITLE5=I Don't Care
TTITLE6=Anjing Shenghou ????
TTITLE7=Sri Lankan Sunset
TTITLE8=Will the Circle Be Unbroken (Live)
TTITLE9=Come to the Edge
EXTD=
EXTT0=
EXTT1=
EXTT2=
EXTT3=
EXTT4=
EXTT5=
EXTT6=
EXTT7=
EXTT8=
EXTT9=
PLAYORDER=
